{
	"asset":{
		"generator":"Khronos glTF Blender I/O v3.6.27",
		"version":"2.0"
	},
	"scene":0,
	"scenes":[
		{
			"name":"Scene",
			"nodes":[
				0
			]
		}
	],
	"nodes":[
		{
			"mesh":0,
			"name":"Sphere"
		}
	],
	"materials":[
		{
			"doubleSided":true,
			"name":"Material",
			"pbrMetallicRoughness":{
				"baseColorTexture":{
					"index":0
				},
				"metallicFactor":0,
				"roughnessFactor":0.5
			}
		}
	],
	"meshes":[
		{
			"name":"Sphere",
			"primitives":[
				{
					"attributes":{
						"POSITION":0,
						"NORMAL":1,
						"TEXCOORD_0":2
					},
					"indices":3,
					"material":0
				}
			]
		}
	],
	"textures":[
		{
			"sampler":0,
			"source":0
		}
	],
	"images":[
		{
			"mimeType":"image/jpeg",
			"name":"PlaceholderTexture",
			"uri":"Textures/PlaceholderTexture.jpg"
		}
	],
	"accessors":[
		{
			"bufferView":0,
			"componentType":5126,
			"count":66047,
			"max":[
				1,
				1,
				1
			],
			"min":[
				-1,
				-1,
				-1
			],
			"type":"VEC3"
		},
		{
			"bufferView":1,
			"componentType":5126,
			"count":66047,
			"type":"VEC3"
		},
		{
			"bufferView":2,
			"componentType":5126,
			"count":66047,
			"type":"VEC2"
		},
		{
			"bufferView":3,
			"componentType":5125,
			"count":391680,
			"type":"SCALAR"
		}
	],
	"bufferViews":[
		{
			"buffer":0,
			"byteLength":792564,
			"byteOffset":0,
			"target":34962
		},
		{
			"buffer":0,
			"byteLength":792564,
			"byteOffset":792564,
			"target":34962
		},
		{
			"buffer":0,
			"byteLength":528376,
			"byteOffset":1585128,
			"target":34962
		},
		{
			"buffer":0,
			"byteLength":1566720,
			"byteOffset":2113504,
			"target":34963
		}
	],
	"samplers":[
		{
			"magFilter":9729,
			"minFilter":9987
		}
	],
	"buffers":[
		{
			"byteLength":3680224,
			"uri":"Sphere.bin"
		}
	]
}
