{
	"asset":{
		"generator":"Khronos glTF Blender I/O v3.6.27",
		"version":"2.0"
	},
	"scene":0,
	"scenes":[
		{
			"name":"Scene",
			"nodes":[
				0
			]
		}
	],
	"nodes":[
		{
			"mesh":0,
			"name":"GenericCubeSat"
		}
	],
	"materials":[
		{
			"name":"Afta-solar1.001",
			"pbrMetallicRoughness":{
				"baseColorFactor":[
					0.2267032265663147,
					0.1756456196308136,
					0.4940856099128723,
					1
				],
				"metallicFactor":0,
				"roughnessFactor":0.8102633953094482
			}
		},
		{
			"name":"Afta-solar22.001",
			"pbrMetallicRoughness":{
				"baseColorFactor":[
					0.23036284744739532,
					0.19055266678333282,
					0.4891326129436493,
					1
				],
				"metallicFactor":0,
				"roughnessFactor":0.8102633953094482
			}
		},
		{
			"name":"Afta-solar33.001",
			"pbrMetallicRoughness":{
				"baseColorFactor":[
					0.20288345217704773,
					0.1648203432559967,
					0.49410539865493774,
					1
				],
				"metallicFactor":0,
				"roughnessFactor":0.8102633953094482
			}
		},
		{
			"name":"Afta-solar44.001",
			"pbrMetallicRoughness":{
				"baseColorFactor":[
					0.19781136512756348,
					0.16069984436035156,
					0.48175278306007385,
					1
				],
				"metallicFactor":0,
				"roughnessFactor":0.8102633953094482
			}
		},
		{
			"name":"Afta-solar55.001",
			"pbrMetallicRoughness":{
				"baseColorFactor":[
					0.22691920399665833,
					0.15290609002113342,
					0.47679439187049866,
					1
				],
				"metallicFactor":0,
				"roughnessFactor":0.8102633953094482
			}
		},
		{
			"name":"Afta-solar66.001",
			"pbrMetallicRoughness":{
				"baseColorFactor":[
					0.18460692465305328,
					0.1613161563873291,
					0.4729207158088684,
					1
				],
				"metallicFactor":0,
				"roughnessFactor":0.8102633953094482
			}
		},
		{
			"name":"Afta-solar77.001",
			"pbrMetallicRoughness":{
				"baseColorFactor":[
					0.20288345217704773,
					0.1648203432559967,
					0.49410539865493774,
					1
				],
				"metallicFactor":0,
				"roughnessFactor":0.8102633953094482
			}
		},
		{
			"name":"Atlas_black-sm.001",
			"pbrMetallicRoughness":{
				"baseColorFactor":[
					0.7843137383460999,
					0.7843137383460999,
					0.7843137383460999,
					1
				],
				"metallicFactor":0
			}
		},
		{
			"name":"Default.001",
			"pbrMetallicRoughness":{
				"baseColorFactor":[
					0.7843137979507446,
					0.7843137979507446,
					0.7843137979507446,
					1
				],
				"metallicFactor":0
			}
		},
		{
			"name":"ICECube-black-fl.001",
			"pbrMetallicRoughness":{
				"baseColorFactor":[
					0.03832635283470154,
					0.03784126788377762,
					0.03714761883020401,
					1
				],
				"metallicFactor":0,
				"roughnessFactor":0.8102633953094482
			}
		},
		{
			"name":"ICECube-black-sm.001",
			"pbrMetallicRoughness":{
				"baseColorFactor":[
					0.03832635283470154,
					0.03784126788377762,
					0.03714761883020401,
					1
				],
				"metallicFactor":0,
				"roughnessFactor":0.8102633953094482
			}
		},
		{
			"name":"ICECube-gold.001",
			"pbrMetallicRoughness":{
				"baseColorFactor":[
					0.7647323608398438,
					0.6444624662399292,
					0.39448994398117065,
					1
				],
				"metallicFactor":0,
				"roughnessFactor":0.8102633953094482
			}
		},
		{
			"name":"ICECube-grey-dark.001",
			"pbrMetallicRoughness":{
				"baseColorFactor":[
					0.29450908303260803,
					0.29335859417915344,
					0.29025718569755554,
					1
				],
				"metallicFactor":0,
				"roughnessFactor":0.8102633953094482
			}
		},
		{
			"name":"ICECube-grey-light.001",
			"pbrMetallicRoughness":{
				"baseColorFactor":[
					0.615593433380127,
					0.6133860349655151,
					0.607435405254364,
					1
				],
				"metallicFactor":0,
				"roughnessFactor":0.8102633953094482
			}
		},
		{
			"name":"ICECube-silverfoil.001",
			"pbrMetallicRoughness":{
				"baseColorFactor":[
					0.9689633250236511,
					0.9655926823616028,
					0.9565063118934631,
					1
				],
				"metallicFactor":0,
				"roughnessFactor":0.8102633953094482
			}
		},
		{
			"name":"ICECube-solar1.001",
			"pbrMetallicRoughness":{
				"baseColorFactor":[
					0.12799280881881714,
					0.09602328389883041,
					0.3054550290107727,
					1
				],
				"metallicFactor":0,
				"roughnessFactor":0.8102633953094482
			}
		},
		{
			"name":"ICECube-solaredges.001",
			"pbrMetallicRoughness":{
				"baseColorFactor":[
					0.7168737053871155,
					0.40193039178848267,
					0.22476544976234436,
					1
				],
				"metallicFactor":0,
				"roughnessFactor":0.8102633953094482
			}
		},
		{
			"name":"ICECube-yellow-tape.001",
			"pbrMetallicRoughness":{
				"baseColorFactor":[
					0.7864037156105042,
					0.6777538657188416,
					0.35809117555618286,
					1
				],
				"metallicFactor":0
			}
		}
	],
	"meshes":[
		{
			"name":"CubeSat",
			"primitives":[
				{
					"attributes":{
						"POSITION":0,
						"NORMAL":1
					},
					"indices":2,
					"material":0
				},
				{
					"attributes":{
						"POSITION":3,
						"NORMAL":4
					},
					"indices":5,
					"material":1
				},
				{
					"attributes":{
						"POSITION":6,
						"NORMAL":7
					},
					"indices":8,
					"material":2
				},
				{
					"attributes":{
						"POSITION":9,
						"NORMAL":10
					},
					"indices":11,
					"material":3
				},
				{
					"attributes":{
						"POSITION":12,
						"NORMAL":13
					},
					"indices":14,
					"material":4
				},
				{
					"attributes":{
						"POSITION":15,
						"NORMAL":16
					},
					"indices":17,
					"material":5
				},
				{
					"attributes":{
						"POSITION":18,
						"NORMAL":19
					},
					"indices":20,
					"material":6
				},
				{
					"attributes":{
						"POSITION":21,
						"NORMAL":22
					},
					"indices":23,
					"material":7
				},
				{
					"attributes":{
						"POSITION":24,
						"NORMAL":25
					},
					"indices":26,
					"material":8
				},
				{
					"attributes":{
						"POSITION":27,
						"NORMAL":28
					},
					"indices":29,
					"material":9
				},
				{
					"attributes":{
						"POSITION":30,
						"NORMAL":31
					},
					"indices":32,
					"material":10
				},
				{
					"attributes":{
						"POSITION":33,
						"NORMAL":34
					},
					"indices":35,
					"material":11
				},
				{
					"attributes":{
						"POSITION":36,
						"NORMAL":37
					},
					"indices":38,
					"material":12
				},
				{
					"attributes":{
						"POSITION":39,
						"NORMAL":40
					},
					"indices":41,
					"material":13
				},
				{
					"attributes":{
						"POSITION":42,
						"NORMAL":43
					},
					"indices":44,
					"material":14
				},
				{
					"attributes":{
						"POSITION":45,
						"NORMAL":46
					},
					"indices":47,
					"material":15
				},
				{
					"attributes":{
						"POSITION":48,
						"NORMAL":49
					},
					"indices":50,
					"material":16
				},
				{
					"attributes":{
						"POSITION":51,
						"NORMAL":52
					},
					"indices":53,
					"material":17
				}
			]
		}
	],
	"accessors":[
		{
			"bufferView":0,
			"componentType":5126,
			"count":8280,
			"max":[
				1.0417898893356323,
				2.1891071796417236,
				1.0227898359298706
			],
			"min":[
				-1.061789870262146,
				-2.78983998298645,
				-1.0227398872375488
			],
			"type":"VEC3"
		},
		{
			"bufferView":1,
			"componentType":5126,
			"count":8280,
			"type":"VEC3"
		},
		{
			"bufferView":2,
			"componentType":5123,
			"count":8280,
			"type":"SCALAR"
		},
		{
			"bufferView":3,
			"componentType":5126,
			"count":9540,
			"max":[
				1.0417898893356323,
				2.1891071796417236,
				1.0227898359298706
			],
			"min":[
				-1.061789870262146,
				-2.78983998298645,
				-1.0227398872375488
			],
			"type":"VEC3"
		},
		{
			"bufferView":4,
			"componentType":5126,
			"count":9540,
			"type":"VEC3"
		},
		{
			"bufferView":5,
			"componentType":5123,
			"count":9540,
			"type":"SCALAR"
		},
		{
			"bufferView":6,
			"componentType":5126,
			"count":17100,
			"max":[
				1.0417898893356323,
				2.1891071796417236,
				1.0227898359298706
			],
			"min":[
				-1.061789870262146,
				-2.78983998298645,
				-1.0227398872375488
			],
			"type":"VEC3"
		},
		{
			"bufferView":7,
			"componentType":5126,
			"count":17100,
			"type":"VEC3"
		},
		{
			"bufferView":8,
			"componentType":5123,
			"count":17100,
			"type":"SCALAR"
		},
		{
			"bufferView":9,
			"componentType":5126,
			"count":15048,
			"max":[
				1.0417898893356323,
				2.1891071796417236,
				1.0227898359298706
			],
			"min":[
				-1.061789870262146,
				-2.78983998298645,
				-1.0227398872375488
			],
			"type":"VEC3"
		},
		{
			"bufferView":10,
			"componentType":5126,
			"count":15048,
			"type":"VEC3"
		},
		{
			"bufferView":11,
			"componentType":5123,
			"count":15048,
			"type":"SCALAR"
		},
		{
			"bufferView":12,
			"componentType":5126,
			"count":15444,
			"max":[
				1.0417898893356323,
				2.1891071796417236,
				1.0227898359298706
			],
			"min":[
				-1.061789870262146,
				-2.78983998298645,
				-1.0227398872375488
			],
			"type":"VEC3"
		},
		{
			"bufferView":13,
			"componentType":5126,
			"count":15444,
			"type":"VEC3"
		},
		{
			"bufferView":14,
			"componentType":5123,
			"count":15444,
			"type":"SCALAR"
		},
		{
			"bufferView":15,
			"componentType":5126,
			"count":12816,
			"max":[
				1.0417898893356323,
				2.1891071796417236,
				1.0227898359298706
			],
			"min":[
				-1.061789870262146,
				-2.78983998298645,
				-1.0227398872375488
			],
			"type":"VEC3"
		},
		{
			"bufferView":16,
			"componentType":5126,
			"count":12816,
			"type":"VEC3"
		},
		{
			"bufferView":17,
			"componentType":5123,
			"count":12816,
			"type":"SCALAR"
		},
		{
			"bufferView":18,
			"componentType":5126,
			"count":18972,
			"max":[
				1.0417898893356323,
				2.1891071796417236,
				1.0227898359298706
			],
			"min":[
				-1.061789870262146,
				-2.78983998298645,
				-1.0227398872375488
			],
			"type":"VEC3"
		},
		{
			"bufferView":19,
			"componentType":5126,
			"count":18972,
			"type":"VEC3"
		},
		{
			"bufferView":20,
			"componentType":5123,
			"count":18972,
			"type":"SCALAR"
		},
		{
			"bufferView":21,
			"componentType":5126,
			"count":420,
			"max":[
				0.9779000282287598,
				2.169600009918213,
				0.9779000282287598
			],
			"min":[
				-0.9779000282287598,
				-2.770399808883667,
				-0.9779000282287598
			],
			"type":"VEC3"
		},
		{
			"bufferView":22,
			"componentType":5126,
			"count":420,
			"type":"VEC3"
		},
		{
			"bufferView":23,
			"componentType":5123,
			"count":420,
			"type":"SCALAR"
		},
		{
			"bufferView":24,
			"componentType":5126,
			"count":7242,
			"max":[
				0.04667472839355469,
				0.007713993079960346,
				5.960464477539063e-08
			],
			"min":[
				-0.04667520523071289,
				-0.009548518806695938,
				-5.7528065644518733e-11
			],
			"type":"VEC3"
		},
		{
			"bufferView":25,
			"componentType":5126,
			"count":7242,
			"type":"VEC3"
		},
		{
			"bufferView":26,
			"componentType":5123,
			"count":7242,
			"type":"SCALAR"
		},
		{
			"bufferView":27,
			"componentType":5126,
			"count":36,
			"max":[
				1.0667999982833862,
				-2.465599775314331,
				0.05079999938607216
			],
			"min":[
				-1.0541000366210938,
				-2.478299856185913,
				-0.05079999938607216
			],
			"type":"VEC3"
		},
		{
			"bufferView":28,
			"componentType":5126,
			"count":36,
			"type":"VEC3"
		},
		{
			"bufferView":29,
			"componentType":5123,
			"count":36,
			"type":"SCALAR"
		},
		{
			"bufferView":30,
			"componentType":5126,
			"count":108,
			"max":[
				0.8636000156402588,
				-2.440200090408325,
				1.0413999557495117
			],
			"min":[
				-0.8636000156402588,
				-2.6307003498077393,
				-1.0795000791549683
			],
			"type":"VEC3"
		},
		{
			"bufferView":31,
			"componentType":5126,
			"count":108,
			"type":"VEC3"
		},
		{
			"bufferView":32,
			"componentType":5123,
			"count":108,
			"type":"SCALAR"
		},
		{
			"bufferView":33,
			"componentType":5126,
			"count":798,
			"max":[
				0.8799999952316284,
				-0.06000000238418579,
				1.090000033378601
			],
			"min":[
				-0.8799999952316284,
				-2.643399953842163,
				-1.1239500045776367
			],
			"type":"VEC3"
		},
		{
			"bufferView":34,
			"componentType":5126,
			"count":798,
			"type":"VEC3"
		},
		{
			"bufferView":35,
			"componentType":5123,
			"count":798,
			"type":"SCALAR"
		},
		{
			"bufferView":36,
			"componentType":5126,
			"count":1110,
			"max":[
				1.0791000127792358,
				2.201540470123291,
				1.090000033378601
			],
			"min":[
				-1.0791000127792358,
				-2.706899881362915,
				-1.090000033378601
			],
			"type":"VEC3"
		},
		{
			"bufferView":37,
			"componentType":5126,
			"count":1110,
			"type":"VEC3"
		},
		{
			"bufferView":38,
			"componentType":5123,
			"count":1110,
			"type":"SCALAR"
		},
		{
			"bufferView":39,
			"componentType":5126,
			"count":144,
			"max":[
				1.024999976158142,
				2.187700033187866,
				1
			],
			"min":[
				-1.024999976158142,
				-2.799999952316284,
				-1
			],
			"type":"VEC3"
		},
		{
			"bufferView":40,
			"componentType":5126,
			"count":144,
			"type":"VEC3"
		},
		{
			"bufferView":41,
			"componentType":5123,
			"count":144,
			"type":"SCALAR"
		},
		{
			"bufferView":42,
			"componentType":5126,
			"count":2178,
			"max":[
				1.0727499723434448,
				2.195127010345459,
				1.0667999982833862
			],
			"min":[
				-1.0727499723434448,
				-2.681499719619751,
				-1.1049000024795532
			],
			"type":"VEC3"
		},
		{
			"bufferView":43,
			"componentType":5126,
			"count":2178,
			"type":"VEC3"
		},
		{
			"bufferView":44,
			"componentType":5123,
			"count":2178,
			"type":"SCALAR"
		},
		{
			"bufferView":45,
			"componentType":5126,
			"count":348,
			"max":[
				1.0400371551513672,
				2.1873369216918945,
				1.0210371017456055
			],
			"min":[
				-1.0600371360778809,
				-2.7880871295928955,
				-1.0209871530532837
			],
			"type":"VEC3"
		},
		{
			"bufferView":46,
			"componentType":5126,
			"count":348,
			"type":"VEC3"
		},
		{
			"bufferView":47,
			"componentType":5123,
			"count":348,
			"type":"SCALAR"
		},
		{
			"bufferView":48,
			"componentType":5126,
			"count":804,
			"max":[
				1.0400371551513672,
				2.1873369216918945,
				1.0210371017456055
			],
			"min":[
				-1.0600371360778809,
				-2.7880871295928955,
				-1.0209871530532837
			],
			"type":"VEC3"
		},
		{
			"bufferView":49,
			"componentType":5126,
			"count":804,
			"type":"VEC3"
		},
		{
			"bufferView":50,
			"componentType":5123,
			"count":804,
			"type":"SCALAR"
		},
		{
			"bufferView":51,
			"componentType":5126,
			"count":300,
			"max":[
				2.688758134841919,
				-2.4681918621063232,
				0.019718728959560394
			],
			"min":[
				-2.6970577239990234,
				-2.476106882095337,
				-0.01413075253367424
			],
			"type":"VEC3"
		},
		{
			"bufferView":52,
			"componentType":5126,
			"count":300,
			"type":"VEC3"
		},
		{
			"bufferView":53,
			"componentType":5123,
			"count":300,
			"type":"SCALAR"
		}
	],
	"bufferViews":[
		{
			"buffer":0,
			"byteLength":99360,
			"byteOffset":0,
			"target":34962
		},
		{
			"buffer":0,
			"byteLength":99360,
			"byteOffset":99360,
			"target":34962
		},
		{
			"buffer":0,
			"byteLength":16560,
			"byteOffset":198720,
			"target":34963
		},
		{
			"buffer":0,
			"byteLength":114480,
			"byteOffset":215280,
			"target":34962
		},
		{
			"buffer":0,
			"byteLength":114480,
			"byteOffset":329760,
			"target":34962
		},
		{
			"buffer":0,
			"byteLength":19080,
			"byteOffset":444240,
			"target":34963
		},
		{
			"buffer":0,
			"byteLength":205200,
			"byteOffset":463320,
			"target":34962
		},
		{
			"buffer":0,
			"byteLength":205200,
			"byteOffset":668520,
			"target":34962
		},
		{
			"buffer":0,
			"byteLength":34200,
			"byteOffset":873720,
			"target":34963
		},
		{
			"buffer":0,
			"byteLength":180576,
			"byteOffset":907920,
			"target":34962
		},
		{
			"buffer":0,
			"byteLength":180576,
			"byteOffset":1088496,
			"target":34962
		},
		{
			"buffer":0,
			"byteLength":30096,
			"byteOffset":1269072,
			"target":34963
		},
		{
			"buffer":0,
			"byteLength":185328,
			"byteOffset":1299168,
			"target":34962
		},
		{
			"buffer":0,
			"byteLength":185328,
			"byteOffset":1484496,
			"target":34962
		},
		{
			"buffer":0,
			"byteLength":30888,
			"byteOffset":1669824,
			"target":34963
		},
		{
			"buffer":0,
			"byteLength":153792,
			"byteOffset":1700712,
			"target":34962
		},
		{
			"buffer":0,
			"byteLength":153792,
			"byteOffset":1854504,
			"target":34962
		},
		{
			"buffer":0,
			"byteLength":25632,
			"byteOffset":2008296,
			"target":34963
		},
		{
			"buffer":0,
			"byteLength":227664,
			"byteOffset":2033928,
			"target":34962
		},
		{
			"buffer":0,
			"byteLength":227664,
			"byteOffset":2261592,
			"target":34962
		},
		{
			"buffer":0,
			"byteLength":37944,
			"byteOffset":2489256,
			"target":34963
		},
		{
			"buffer":0,
			"byteLength":5040,
			"byteOffset":2527200,
			"target":34962
		},
		{
			"buffer":0,
			"byteLength":5040,
			"byteOffset":2532240,
			"target":34962
		},
		{
			"buffer":0,
			"byteLength":840,
			"byteOffset":2537280,
			"target":34963
		},
		{
			"buffer":0,
			"byteLength":86904,
			"byteOffset":2538120,
			"target":34962
		},
		{
			"buffer":0,
			"byteLength":86904,
			"byteOffset":2625024,
			"target":34962
		},
		{
			"buffer":0,
			"byteLength":14484,
			"byteOffset":2711928,
			"target":34963
		},
		{
			"buffer":0,
			"byteLength":432,
			"byteOffset":2726412,
			"target":34962
		},
		{
			"buffer":0,
			"byteLength":432,
			"byteOffset":2726844,
			"target":34962
		},
		{
			"buffer":0,
			"byteLength":72,
			"byteOffset":2727276,
			"target":34963
		},
		{
			"buffer":0,
			"byteLength":1296,
			"byteOffset":2727348,
			"target":34962
		},
		{
			"buffer":0,
			"byteLength":1296,
			"byteOffset":2728644,
			"target":34962
		},
		{
			"buffer":0,
			"byteLength":216,
			"byteOffset":2729940,
			"target":34963
		},
		{
			"buffer":0,
			"byteLength":9576,
			"byteOffset":2730156,
			"target":34962
		},
		{
			"buffer":0,
			"byteLength":9576,
			"byteOffset":2739732,
			"target":34962
		},
		{
			"buffer":0,
			"byteLength":1596,
			"byteOffset":2749308,
			"target":34963
		},
		{
			"buffer":0,
			"byteLength":13320,
			"byteOffset":2750904,
			"target":34962
		},
		{
			"buffer":0,
			"byteLength":13320,
			"byteOffset":2764224,
			"target":34962
		},
		{
			"buffer":0,
			"byteLength":2220,
			"byteOffset":2777544,
			"target":34963
		},
		{
			"buffer":0,
			"byteLength":1728,
			"byteOffset":2779764,
			"target":34962
		},
		{
			"buffer":0,
			"byteLength":1728,
			"byteOffset":2781492,
			"target":34962
		},
		{
			"buffer":0,
			"byteLength":288,
			"byteOffset":2783220,
			"target":34963
		},
		{
			"buffer":0,
			"byteLength":26136,
			"byteOffset":2783508,
			"target":34962
		},
		{
			"buffer":0,
			"byteLength":26136,
			"byteOffset":2809644,
			"target":34962
		},
		{
			"buffer":0,
			"byteLength":4356,
			"byteOffset":2835780,
			"target":34963
		},
		{
			"buffer":0,
			"byteLength":4176,
			"byteOffset":2840136,
			"target":34962
		},
		{
			"buffer":0,
			"byteLength":4176,
			"byteOffset":2844312,
			"target":34962
		},
		{
			"buffer":0,
			"byteLength":696,
			"byteOffset":2848488,
			"target":34963
		},
		{
			"buffer":0,
			"byteLength":9648,
			"byteOffset":2849184,
			"target":34962
		},
		{
			"buffer":0,
			"byteLength":9648,
			"byteOffset":2858832,
			"target":34962
		},
		{
			"buffer":0,
			"byteLength":1608,
			"byteOffset":2868480,
			"target":34963
		},
		{
			"buffer":0,
			"byteLength":3600,
			"byteOffset":2870088,
			"target":34962
		},
		{
			"buffer":0,
			"byteLength":3600,
			"byteOffset":2873688,
			"target":34962
		},
		{
			"buffer":0,
			"byteLength":600,
			"byteOffset":2877288,
			"target":34963
		}
	],
	"buffers":[
		{
			"byteLength":2877888,
			"uri":"GenericCubeSat.bin"
		}
	]
}
