{
	"asset":{
		"generator":"Khronos glTF Blender I/O v3.6.27",
		"version":"2.0"
	},
	"extensionsUsed":[
		"KHR_materials_specular",
		"KHR_materials_ior"
	],
	"scene":0,
	"scenes":[
		{
			"name":"Scene",
			"nodes":[
				0
			]
		}
	],
	"nodes":[
		{
			"mesh":0,
			"name":"VNREDSat",
			"scale":[
				1.5,
				1,
				1
			]
		}
	],
	"materials":[
		{
			"doubleSided":true,
			"extensions":{
				"KHR_materials_specular":{
					"specularColorFactor":[
						2.371357614441398,
						2.371357614441398,
						2.371357614441398
					]
				},
				"KHR_materials_ior":{
					"ior":1.4500000476837158
				}
			},
			"name":"Body",
			"normalTexture":{
				"index":0
			},
			"pbrMetallicRoughness":{
				"baseColorFactor":[
					1,
					0.4163130521774292,
					0.03821233659982681,
					1
				],
				"roughnessFactor":0
			}
		},
		{
			"doubleSided":true,
			"name":"Camera",
			"pbrMetallicRoughness":{
				"baseColorFactor":[
					0,
					0,
					0,
					1
				],
				"roughnessFactor":0.5
			}
		},
		{
			"doubleSided":true,
			"name":"Material.002",
			"pbrMetallicRoughness":{
				"baseColorFactor":[
					0.800000011920929,
					0.800000011920929,
					0.800000011920929,
					1
				],
				"metallicFactor":0,
				"roughnessFactor":0.4000000059604645
			}
		},
		{
			"doubleSided":true,
			"name":"*1.002",
			"pbrMetallicRoughness":{
				"baseColorTexture":{
					"index":1
				},
				"metallicFactor":0,
				"roughnessFactor":0.5
			}
		},
		{
			"doubleSided":true,
			"name":"Material.003",
			"pbrMetallicRoughness":{
				"baseColorFactor":[
					0.800000011920929,
					0.800000011920929,
					0.800000011920929,
					1
				],
				"metallicFactor":0,
				"roughnessFactor":0.4000000059604645
			}
		},
		{
			"doubleSided":true,
			"name":"*1.003",
			"pbrMetallicRoughness":{
				"baseColorTexture":{
					"index":2
				},
				"metallicFactor":0,
				"roughnessFactor":0.5
			}
		},
		{
			"doubleSided":true,
			"name":"Material",
			"pbrMetallicRoughness":{
				"baseColorFactor":[
					0.800000011920929,
					0.800000011920929,
					0.800000011920929,
					1
				],
				"roughnessFactor":0.4000000059604645
			}
		}
	],
	"meshes":[
		{
			"name":"Cube",
			"primitives":[
				{
					"attributes":{
						"POSITION":0,
						"NORMAL":1,
						"TEXCOORD_0":2
					},
					"indices":3,
					"material":0
				},
				{
					"attributes":{
						"POSITION":4,
						"NORMAL":5,
						"TEXCOORD_0":6
					},
					"indices":7,
					"material":1
				},
				{
					"attributes":{
						"POSITION":8,
						"NORMAL":9,
						"TEXCOORD_0":10
					},
					"indices":11,
					"material":2
				},
				{
					"attributes":{
						"POSITION":12,
						"NORMAL":13,
						"TEXCOORD_0":14
					},
					"indices":15,
					"material":3
				},
				{
					"attributes":{
						"POSITION":16,
						"NORMAL":17,
						"TEXCOORD_0":18
					},
					"indices":19,
					"material":4
				},
				{
					"attributes":{
						"POSITION":20,
						"NORMAL":21,
						"TEXCOORD_0":22
					},
					"indices":15,
					"material":5
				},
				{
					"attributes":{
						"POSITION":23,
						"NORMAL":24,
						"TEXCOORD_0":25
					},
					"indices":26,
					"material":6
				}
			]
		}
	],
	"textures":[
		{
			"sampler":0,
			"source":0
		},
		{
			"sampler":0,
			"source":1
		},
		{
			"sampler":0,
			"source":1
		}
	],
	"images":[
		{
			"mimeType":"image/jpeg",
			"name":"foil_n",
			"uri":"Textures/foil_n.jpg"
		},
		{
			"mimeType":"image/jpeg",
			"name":"Solar_Panel_001_metallic",
			"uri":"Textures/Solar_Panel_001_metallic.jpg"
		}
	],
	"accessors":[
		{
			"bufferView":0,
			"componentType":5126,
			"count":24,
			"max":[
				1,
				1,
				1
			],
			"min":[
				-1,
				-1,
				-1
			],
			"type":"VEC3"
		},
		{
			"bufferView":1,
			"componentType":5126,
			"count":24,
			"type":"VEC3"
		},
		{
			"bufferView":2,
			"componentType":5126,
			"count":24,
			"type":"VEC2"
		},
		{
			"bufferView":3,
			"componentType":5123,
			"count":36,
			"type":"SCALAR"
		},
		{
			"bufferView":4,
			"componentType":5126,
			"count":704,
			"max":[
				1.0737700462341309,
				0.40595895051956177,
				0.4367983043193817
			],
			"min":[
				-1.0343661308288574,
				-1.0405594110488892,
				-0.4367983043193817
			],
			"type":"VEC3"
		},
		{
			"bufferView":5,
			"componentType":5126,
			"count":704,
			"type":"VEC3"
		},
		{
			"bufferView":6,
			"componentType":5126,
			"count":704,
			"type":"VEC2"
		},
		{
			"bufferView":7,
			"componentType":5123,
			"count":1140,
			"type":"SCALAR"
		},
		{
			"bufferView":8,
			"componentType":5126,
			"count":34,
			"max":[
				-1.016352653503418,
				-0.9895402193069458,
				0.9720667600631714
			],
			"min":[
				-1.0431976318359375,
				-4.826143264770508,
				-0.9720667600631714
			],
			"type":"VEC3"
		},
		{
			"bufferView":9,
			"componentType":5126,
			"count":34,
			"type":"VEC3"
		},
		{
			"bufferView":10,
			"componentType":5126,
			"count":34,
			"type":"VEC2"
		},
		{
			"bufferView":11,
			"componentType":5123,
			"count":60,
			"type":"SCALAR"
		},
		{
			"bufferView":12,
			"componentType":5126,
			"count":4,
			"max":[
				-1.0430248975753784,
				-1.0669567584991455,
				0.8946437239646912
			],
			"min":[
				-1.0431921482086182,
				-4.74873161315918,
				-0.8946550488471985
			],
			"type":"VEC3"
		},
		{
			"bufferView":13,
			"componentType":5126,
			"count":4,
			"type":"VEC3"
		},
		{
			"bufferView":14,
			"componentType":5126,
			"count":4,
			"type":"VEC2"
		},
		{
			"bufferView":15,
			"componentType":5123,
			"count":6,
			"type":"SCALAR"
		},
		{
			"bufferView":16,
			"componentType":5126,
			"count":226,
			"max":[
				-1.0027337074279785,
				-4.803897857666016,
				0.9720667600631714
			],
			"min":[
				-1.0568130016326904,
				-8.702250480651855,
				-0.9720667600631714
			],
			"type":"VEC3"
		},
		{
			"bufferView":17,
			"componentType":5126,
			"count":226,
			"type":"VEC3"
		},
		{
			"bufferView":18,
			"componentType":5126,
			"count":226,
			"type":"VEC2"
		},
		{
			"bufferView":19,
			"componentType":5123,
			"count":432,
			"type":"SCALAR"
		},
		{
			"bufferView":20,
			"componentType":5126,
			"count":4,
			"max":[
				-1.0430231094360352,
				-4.943063735961914,
				0.8946437239646912
			],
			"min":[
				-1.043190360069275,
				-8.624838829040527,
				-0.8946550488471985
			],
			"type":"VEC3"
		},
		{
			"bufferView":21,
			"componentType":5126,
			"count":4,
			"type":"VEC3"
		},
		{
			"bufferView":22,
			"componentType":5126,
			"count":4,
			"type":"VEC2"
		},
		{
			"bufferView":23,
			"componentType":5126,
			"count":580,
			"max":[
				-0.9634491205215454,
				0.7361512780189514,
				0.7361512780189514
			],
			"min":[
				-1.1126024723052979,
				-0.7361512780189514,
				-0.7361512780189514
			],
			"type":"VEC3"
		},
		{
			"bufferView":24,
			"componentType":5126,
			"count":580,
			"type":"VEC3"
		},
		{
			"bufferView":25,
			"componentType":5126,
			"count":580,
			"type":"VEC2"
		},
		{
			"bufferView":26,
			"componentType":5123,
			"count":1140,
			"type":"SCALAR"
		}
	],
	"bufferViews":[
		{
			"buffer":0,
			"byteLength":288,
			"byteOffset":0,
			"target":34962
		},
		{
			"buffer":0,
			"byteLength":288,
			"byteOffset":288,
			"target":34962
		},
		{
			"buffer":0,
			"byteLength":192,
			"byteOffset":576,
			"target":34962
		},
		{
			"buffer":0,
			"byteLength":72,
			"byteOffset":768,
			"target":34963
		},
		{
			"buffer":0,
			"byteLength":8448,
			"byteOffset":840,
			"target":34962
		},
		{
			"buffer":0,
			"byteLength":8448,
			"byteOffset":9288,
			"target":34962
		},
		{
			"buffer":0,
			"byteLength":5632,
			"byteOffset":17736,
			"target":34962
		},
		{
			"buffer":0,
			"byteLength":2280,
			"byteOffset":23368,
			"target":34963
		},
		{
			"buffer":0,
			"byteLength":408,
			"byteOffset":25648,
			"target":34962
		},
		{
			"buffer":0,
			"byteLength":408,
			"byteOffset":26056,
			"target":34962
		},
		{
			"buffer":0,
			"byteLength":272,
			"byteOffset":26464,
			"target":34962
		},
		{
			"buffer":0,
			"byteLength":120,
			"byteOffset":26736,
			"target":34963
		},
		{
			"buffer":0,
			"byteLength":48,
			"byteOffset":26856,
			"target":34962
		},
		{
			"buffer":0,
			"byteLength":48,
			"byteOffset":26904,
			"target":34962
		},
		{
			"buffer":0,
			"byteLength":32,
			"byteOffset":26952,
			"target":34962
		},
		{
			"buffer":0,
			"byteLength":12,
			"byteOffset":26984,
			"target":34963
		},
		{
			"buffer":0,
			"byteLength":2712,
			"byteOffset":26996,
			"target":34962
		},
		{
			"buffer":0,
			"byteLength":2712,
			"byteOffset":29708,
			"target":34962
		},
		{
			"buffer":0,
			"byteLength":1808,
			"byteOffset":32420,
			"target":34962
		},
		{
			"buffer":0,
			"byteLength":864,
			"byteOffset":34228,
			"target":34963
		},
		{
			"buffer":0,
			"byteLength":48,
			"byteOffset":35092,
			"target":34962
		},
		{
			"buffer":0,
			"byteLength":48,
			"byteOffset":35140,
			"target":34962
		},
		{
			"buffer":0,
			"byteLength":32,
			"byteOffset":35188,
			"target":34962
		},
		{
			"buffer":0,
			"byteLength":6960,
			"byteOffset":35220,
			"target":34962
		},
		{
			"buffer":0,
			"byteLength":6960,
			"byteOffset":42180,
			"target":34962
		},
		{
			"buffer":0,
			"byteLength":4640,
			"byteOffset":49140,
			"target":34962
		},
		{
			"buffer":0,
			"byteLength":2280,
			"byteOffset":53780,
			"target":34963
		}
	],
	"samplers":[
		{
			"magFilter":9729,
			"minFilter":9987
		}
	],
	"buffers":[
		{
			"byteLength":56060,
			"uri":"VNREDSat.bin"
		}
	]
}
