{
	"asset":{
		"generator":"Khronos glTF Blender I/O v3.6.27",
		"version":"2.0"
	},
	"scene":0,
	"scenes":[
		{
			"name":"Scene",
			"nodes":[
				0,
				1,
				2,
				3,
				4
			]
		}
	],
	"nodes":[
		{
			"mesh":0,
			"name":"GoldFoil",
			"rotation":[
				0.7071068286895752,
				0,
				0,
				0.7071068286895752
			]
		},
		{
			"mesh":1,
			"name":"HRMA",
			"rotation":[
				0.7071068286895752,
				0,
				0,
				0.7071068286895752
			]
		},
		{
			"mesh":2,
			"name":"Panels",
			"rotation":[
				0.7071068286895752,
				0,
				0,
				0.7071068286895752
			]
		},
		{
			"mesh":3,
			"name":"SilverFoil",
			"rotation":[
				0.7071068286895752,
				0,
				0,
				0.7071068286895752
			]
		},
		{
			"mesh":4,
			"name":"tex_01",
			"rotation":[
				0.7071068286895752,
				0,
				0,
				0.7071068286895752
			]
		}
	],
	"materials":[
		{
			"doubleSided":true,
			"name":"foil_gold",
			"normalTexture":{
				"index":0
			},
			"pbrMetallicRoughness":{
				"baseColorTexture":{
					"index":1
				},
				"metallicFactor":0,
				"roughnessFactor":0.5
			}
		},
		{
			"doubleSided":true,
			"name":"AO_HRMA",
			"pbrMetallicRoughness":{
				"baseColorTexture":{
					"index":2
				},
				"metallicFactor":0,
				"roughnessFactor":0.5
			}
		},
		{
			"doubleSided":true,
			"name":"shiny_panel",
			"pbrMetallicRoughness":{
				"baseColorFactor":[
					0.800000011920929,
					0.800000011920929,
					0.800000011920929,
					1
				]
			}
		},
		{
			"doubleSided":true,
			"name":"foil_silver",
			"normalTexture":{
				"index":3
			},
			"pbrMetallicRoughness":{
				"baseColorTexture":{
					"index":4
				},
				"metallicFactor":0,
				"roughnessFactor":0.5
			}
		},
		{
			"doubleSided":true,
			"name":"tex_01",
			"pbrMetallicRoughness":{
				"baseColorTexture":{
					"index":5
				},
				"metallicFactor":0,
				"roughnessFactor":0.5
			}
		}
	],
	"meshes":[
		{
			"name":"GoldFoil",
			"primitives":[
				{
					"attributes":{
						"POSITION":0,
						"NORMAL":1,
						"TEXCOORD_0":2
					},
					"indices":3,
					"material":0
				}
			]
		},
		{
			"name":"HRMA",
			"primitives":[
				{
					"attributes":{
						"POSITION":4,
						"NORMAL":5,
						"TEXCOORD_0":6
					},
					"indices":7,
					"material":1
				}
			]
		},
		{
			"name":"Panels",
			"primitives":[
				{
					"attributes":{
						"POSITION":8,
						"NORMAL":9,
						"TEXCOORD_0":10
					},
					"indices":11,
					"material":2
				}
			]
		},
		{
			"name":"SilverFoil",
			"primitives":[
				{
					"attributes":{
						"POSITION":12,
						"NORMAL":13,
						"TEXCOORD_0":14
					},
					"indices":15,
					"material":3
				}
			]
		},
		{
			"name":"tex_01",
			"primitives":[
				{
					"attributes":{
						"POSITION":16,
						"NORMAL":17,
						"TEXCOORD_0":18
					},
					"indices":19,
					"material":4
				}
			]
		}
	],
	"textures":[
		{
			"sampler":0,
			"source":0
		},
		{
			"sampler":0,
			"source":1
		},
		{
			"sampler":0,
			"source":2
		},
		{
			"sampler":0,
			"source":0
		},
		{
			"sampler":0,
			"source":3
		},
		{
			"sampler":0,
			"source":4
		}
	],
	"images":[
		{
			"mimeType":"image/jpeg",
			"name":"foil_n",
			"uri":"Textures/foil_n.jpg"
		},
		{
			"mimeType":"image/jpeg",
			"name":"foil_gold_ramp",
			"uri":"Textures/foil_gold_ramp.jpg"
		},
		{
			"mimeType":"image/jpeg",
			"name":"chandra_AO_HRMA",
			"uri":"Textures/chandra_AO_HRMA.jpg"
		},
		{
			"mimeType":"image/jpeg",
			"name":"foil_silver_ramp",
			"uri":"Textures/foil_silver_ramp.jpg"
		},
		{
			"mimeType":"image/jpeg",
			"name":"chandra_tex_01",
			"uri":"Textures/chandra_tex_01.jpg"
		}
	],
	"accessors":[
		{
			"bufferView":0,
			"componentType":5126,
			"count":362,
			"max":[
				10.644993782043457,
				3.0641651153564453,
				1.7855000495910645
			],
			"min":[
				-1.120007038116455,
				-3.0641651153564453,
				-1.8734780550003052
			],
			"type":"VEC3"
		},
		{
			"bufferView":1,
			"componentType":5126,
			"count":362,
			"type":"VEC3"
		},
		{
			"bufferView":2,
			"componentType":5126,
			"count":362,
			"type":"VEC2"
		},
		{
			"bufferView":3,
			"componentType":5123,
			"count":1167,
			"type":"SCALAR"
		},
		{
			"bufferView":4,
			"componentType":5126,
			"count":12045,
			"max":[
				10.097262382507324,
				1.0346779823303223,
				1.0346779823303223
			],
			"min":[
				-1.1328580379486084,
				-1.0346779823303223,
				-1.0346779823303223
			],
			"type":"VEC3"
		},
		{
			"bufferView":5,
			"componentType":5126,
			"count":12045,
			"type":"VEC3"
		},
		{
			"bufferView":6,
			"componentType":5126,
			"count":12045,
			"type":"VEC2"
		},
		{
			"bufferView":7,
			"componentType":5123,
			"count":32901,
			"type":"SCALAR"
		},
		{
			"bufferView":8,
			"componentType":5126,
			"count":67,
			"max":[
				0.7770270109176636,
				9.753499031066895,
				0.3944920003414154
			],
			"min":[
				-0.793366014957428,
				-9.753497123718262,
				-0.9232239723205566
			],
			"type":"VEC3"
		},
		{
			"bufferView":9,
			"componentType":5126,
			"count":67,
			"type":"VEC3"
		},
		{
			"bufferView":10,
			"componentType":5126,
			"count":67,
			"type":"VEC2"
		},
		{
			"bufferView":11,
			"componentType":5123,
			"count":108,
			"type":"SCALAR"
		},
		{
			"bufferView":12,
			"componentType":5126,
			"count":4662,
			"max":[
				10.159344673156738,
				1.7771849632263184,
				2.2984209060668945
			],
			"min":[
				-3.1100850105285645,
				-1.7771849632263184,
				-2.2984209060668945
			],
			"type":"VEC3"
		},
		{
			"bufferView":13,
			"componentType":5126,
			"count":4662,
			"type":"VEC3"
		},
		{
			"bufferView":14,
			"componentType":5126,
			"count":4662,
			"type":"VEC2"
		},
		{
			"bufferView":15,
			"componentType":5123,
			"count":21516,
			"type":"SCALAR"
		},
		{
			"bufferView":16,
			"componentType":5126,
			"count":14299,
			"max":[
				10.669994354248047,
				9.753499031066895,
				2.571721076965332
			],
			"min":[
				-1.2728559970855713,
				-9.753497123718262,
				-2.571721076965332
			],
			"type":"VEC3"
		},
		{
			"bufferView":17,
			"componentType":5126,
			"count":14299,
			"type":"VEC3"
		},
		{
			"bufferView":18,
			"componentType":5126,
			"count":14299,
			"type":"VEC2"
		},
		{
			"bufferView":19,
			"componentType":5123,
			"count":34668,
			"type":"SCALAR"
		}
	],
	"bufferViews":[
		{
			"buffer":0,
			"byteLength":4344,
			"byteOffset":0,
			"target":34962
		},
		{
			"buffer":0,
			"byteLength":4344,
			"byteOffset":4344,
			"target":34962
		},
		{
			"buffer":0,
			"byteLength":2896,
			"byteOffset":8688,
			"target":34962
		},
		{
			"buffer":0,
			"byteLength":2334,
			"byteOffset":11584,
			"target":34963
		},
		{
			"buffer":0,
			"byteLength":144540,
			"byteOffset":13920,
			"target":34962
		},
		{
			"buffer":0,
			"byteLength":144540,
			"byteOffset":158460,
			"target":34962
		},
		{
			"buffer":0,
			"byteLength":96360,
			"byteOffset":303000,
			"target":34962
		},
		{
			"buffer":0,
			"byteLength":65802,
			"byteOffset":399360,
			"target":34963
		},
		{
			"buffer":0,
			"byteLength":804,
			"byteOffset":465164,
			"target":34962
		},
		{
			"buffer":0,
			"byteLength":804,
			"byteOffset":465968,
			"target":34962
		},
		{
			"buffer":0,
			"byteLength":536,
			"byteOffset":466772,
			"target":34962
		},
		{
			"buffer":0,
			"byteLength":216,
			"byteOffset":467308,
			"target":34963
		},
		{
			"buffer":0,
			"byteLength":55944,
			"byteOffset":467524,
			"target":34962
		},
		{
			"buffer":0,
			"byteLength":55944,
			"byteOffset":523468,
			"target":34962
		},
		{
			"buffer":0,
			"byteLength":37296,
			"byteOffset":579412,
			"target":34962
		},
		{
			"buffer":0,
			"byteLength":43032,
			"byteOffset":616708,
			"target":34963
		},
		{
			"buffer":0,
			"byteLength":171588,
			"byteOffset":659740,
			"target":34962
		},
		{
			"buffer":0,
			"byteLength":171588,
			"byteOffset":831328,
			"target":34962
		},
		{
			"buffer":0,
			"byteLength":114392,
			"byteOffset":1002916,
			"target":34962
		},
		{
			"buffer":0,
			"byteLength":69336,
			"byteOffset":1117308,
			"target":34963
		}
	],
	"samplers":[
		{
			"magFilter":9729,
			"minFilter":9987
		}
	],
	"buffers":[
		{
			"byteLength":1186644,
			"uri":"Chandra.bin"
		}
	]
}
